# Hierarchical Translation and Rotation (.htr) file
# Generated by EVaRT
[Header]
FileType htr
DataType HTRS
FileVersion 1
NumSegments 23
NumFrames 4
DataFrameRate 120
EulerRotationOrder ZYX
CalibrationUnits mm
RotationUnits Degrees
GlobalAxisofGravity Y
BoneLengthAxis Y
ScaleFactor 1
[SegmentNames&Hierarchy]
#CHILD            PARENT
DaveRoot          GLOBAL
Spine1            DaveRoot
Spine2            Spine1
Spine3            Spine2
Spine4            Spine3
Neck              Spine4
Head              Neck
LClavicle         Spine4
LUpperArm         LClavicle
LLowerArm         LUpperArm
LHand             LLowerArm
RClavicle         Spine4
RUpperArm         RClavicle
RLowerArm         RUpperArm
RHand             RLowerArm
RUpperLeg         DaveRoot
RLowerLeg         RUpperLeg
RFoot             RLowerLeg
RToes             RFoot
LUpperLeg         DaveRoot
LLowerLeg         LUpperLeg
LFoot             LLowerLeg
LToes             LFoot
[BasePosition]
#SegmentName      Tx   Ty   Tz   Rx   Ry   Rz   BoneLength
DaveRoot          -2055.569378	951.555595	-349.488296	-55.286396	87.050266	-65.121985	100.000000
Spine1            0.000000	100.000000	0.000000	-15.583766	0.109194	-2.004305	100.000000
Spine2            0.000000	100.000000	0.000000	5.873579	0.737526	-1.849210	100.000000
Spine3            0.000000	100.000000	0.000000	12.197367	0.936767	-1.756723	100.000000
Spine4            0.000000	100.000000	0.000000	13.310112	2.040835	-0.212222	100.000000
Neck              0.000000	100.000000	0.000000	12.619245	0.173111	5.676401	80.000000
Head              0.000000	80.000000	0.000000	-46.107413	-7.464542	12.340102	200.000000
LClavicle         0.000000	100.000000	0.000000	1.044460	-1.911847	-125.483710	200.000000
LUpperArm         0.000000	200.000000	0.000000	43.357802	45.679579	2.001361	300.000000
LLowerArm         0.000000	300.000000	0.000000	0.730208	2.175812	1.895763	200.000000
LHand             0.000000	200.000000	0.000000	7.864047	-1.768569	8.793625	120.000000
RClavicle         0.000000	100.000000	0.000000	-0.545713	-3.840301	119.120382	200.000000
RUpperArm         0.000000	200.000000	0.000000	38.253382	-38.646808	20.273438	300.000000
RLowerArm         0.000000	300.000000	0.000000	3.077531	-3.682026	-7.348670	200.000000
RHand             0.000000	200.000000	0.000000	24.943087	4.220171	-5.193807	120.000000
RUpperLeg         -115.911102	-10.000000	31.058285	22.464267	14.037388	-176.329742	530.000000
RLowerLeg         0.000000	530.000000	0.000000	-23.704548	0.479387	-2.520024	460.000000
RFoot             0.000000	460.000000	0.000000	90.327319	5.730808	-0.531790	130.000000
RToes             0.000000	130.000000	0.000000	18.726053	0.005479	-0.002881	100.000000
LUpperLeg         115.911102	-10.000000	31.058285	16.272232	9.077962	178.396881	530.000000
LLowerLeg         0.000000	530.000000	0.000000	-9.044305	-3.275937	3.046484	460.000000
LFoot             0.000000	460.000000	0.000000	80.193205	-12.160808	23.252942	130.000000
LToes             0.000000	130.000000	0.000000	33.283153	-0.000000	-0.000086	100.000000
#Beginning of Data.
[DaveRoot]
#Fr	Tx	Ty	Tz	Rx	Ry	Rz	SF
463	2105.428178	-825.217717	-68.795708	122.888683	1.423728	-94.926882	1.000000	
464	2109.159907	-820.302313	-72.511083	122.624025	2.124356	-95.990563	1.000000	
465	2112.498301	-814.332465	-75.960146	122.241775	2.310262	-96.873980	1.000000	
466	2115.492316	-807.691682	-79.134101	121.826290	2.130809	-97.566173	1.000000	
[Spine1]
#Fr	Tx	Ty	Tz	Rx	Ry	Rz	SF
463	0.000000	0.000000	0.000000	-0.120290	2.965862	8.225723	1.000000	
464	0.000000	0.000000	0.000000	-0.035693	3.078128	7.968120	1.000000	
465	0.000000	0.000000	0.000000	0.104617	3.113168	7.635598	1.000000	
466	0.000000	0.000000	0.000000	0.265969	3.065722	7.244492	1.000000	
[Spine2]
#Fr	Tx	Ty	Tz	Rx	Ry	Rz	SF
463	0.000000	0.000000	0.000000	-0.120290	2.965862	8.225723	1.000000	
464	0.000000	0.000000	0.000000	-0.035693	3.078128	7.968120	1.000000	
465	0.000000	0.000000	0.000000	0.104617	3.113168	7.635598	1.000000	
466	0.000000	0.000000	0.000000	0.265969	3.065722	7.244492	1.000000	
[Spine3]
#Fr	Tx	Ty	Tz	Rx	Ry	Rz	SF
463	0.000000	0.000000	0.000000	-0.120290	2.965862	8.225723	1.000000	
464	0.000000	0.000000	0.000000	-0.035693	3.078128	7.968120	1.000000	
465	0.000000	0.000000	0.000000	0.104617	3.113168	7.635598	1.000000	
466	0.000000	0.000000	0.000000	0.265969	3.065722	7.244492	1.000000	
[Spine4]
#Fr	Tx	Ty	Tz	Rx	Ry	Rz	SF
463	0.000000	0.000000	0.000000	-0.120290	2.965862	8.225723	1.000000	
464	0.000000	0.000000	0.000000	-0.035693	3.078128	7.968120	1.000000	
465	0.000000	0.000000	0.000000	0.104617	3.113168	7.635598	1.000000	
466	0.000000	0.000000	0.000000	0.265969	3.065722	7.244492	1.000000	
[Neck]
#Fr	Tx	Ty	Tz	Rx	Ry	Rz	SF
463	0.000000	0.000000	0.000000	9.282530	5.240734	-4.362479	1.000000	
464	0.000000	0.000000	0.000000	9.932003	5.360914	-6.668471	1.000000	
465	0.000000	0.000000	0.000000	10.238186	5.919575	-8.919264	1.000000	
466	0.000000	0.000000	0.000000	10.288506	6.848514	-10.942588	1.000000	
[Head]
#Fr	Tx	Ty	Tz	Rx	Ry	Rz	SF
463	0.000000	0.000000	0.000000	9.282530	5.240734	-4.362479	1.000000	
464	0.000000	0.000000	0.000000	9.932003	5.360914	-6.668471	1.000000	
465	0.000000	0.000000	0.000000	10.238186	5.919575	-8.919264	1.000000	
466	0.000000	0.000000	0.000000	10.288506	6.848514	-10.942588	1.000000	
[LClavicle]
#Fr	Tx	Ty	Tz	Rx	Ry	Rz	SF
463	0.000000	0.000000	0.000000	11.011684	-3.573582	38.775511	1.000000	
464	0.000000	0.000000	0.000000	11.490826	-3.953636	39.750182	1.000000	
465	0.000000	0.000000	0.000000	11.845869	-4.262645	40.527540	1.000000	
466	0.000000	0.000000	0.000000	12.110112	-4.518862	41.177484	1.000000	
[LUpperArm]
#Fr	Tx	Ty	Tz	Rx	Ry	Rz	SF
463	0.000000	0.000000	0.000000	61.031650	-17.339200	-53.200099	1.000000	
464	0.000000	0.000000	0.000000	62.097236	-17.953998	-55.272706	1.000000	
465	0.000000	0.000000	0.000000	62.955376	-18.911946	-57.155709	1.000000	
466	0.000000	0.000000	0.000000	63.620768	-20.134295	-58.951592	1.000000	
[LLowerArm]
#Fr	Tx	Ty	Tz	Rx	Ry	Rz	SF
463	0.000000	0.000000	0.000000	65.423997	-0.000000	-0.000000	1.000000	
464	0.000000	0.000000	0.000000	65.260049	-0.000000	-0.000000	1.000000	
465	0.000000	0.000000	0.000000	65.472508	-0.000000	-0.000000	1.000000	
466	0.000000	0.000000	0.000000	65.898597	-0.000000	-0.000000	1.000000	
[LHand]
#Fr	Tx	Ty	Tz	Rx	Ry	Rz	SF
463	0.000000	0.000000	0.000000	5.297573	-0.000000	0.000000	1.000000	
464	0.000000	0.000000	0.000000	4.421122	0.000000	0.000000	1.000000	
465	0.000000	0.000000	0.000000	3.085016	-0.000000	0.000000	1.000000	
466	0.000000	0.000000	0.000000	1.462662	0.000000	0.000000	1.000000	
[RClavicle]
#Fr	Tx	Ty	Tz	Rx	Ry	Rz	SF
463	0.000000	0.000000	0.000000	5.627009	1.233150	-23.617724	1.000000	
464	0.000000	0.000000	0.000000	5.380025	1.308749	-24.928741	1.000000	
465	0.000000	0.000000	0.000000	5.142049	1.347557	-25.942335	1.000000	
466	0.000000	0.000000	0.000000	4.960303	1.365035	-26.644777	1.000000	
[RUpperArm]
#Fr	Tx	Ty	Tz	Rx	Ry	Rz	SF
463	0.000000	0.000000	0.000000	31.542995	13.736380	-20.799013	1.000000	
464	0.000000	0.000000	0.000000	32.468745	14.142873	-19.482899	1.000000	
465	0.000000	0.000000	0.000000	33.410505	14.520102	-18.880425	1.000000	
466	0.000000	0.000000	0.000000	34.256715	14.897428	-18.876232	1.000000	
[RLowerArm]
#Fr	Tx	Ty	Tz	Rx	Ry	Rz	SF
463	0.000000	0.000000	0.000000	80.154020	-0.000000	-0.000000	1.000000	
464	0.000000	0.000000	0.000000	79.521185	-0.000000	-0.000000	1.000000	
465	0.000000	0.000000	0.000000	78.664688	-0.000000	-0.000000	1.000000	
466	0.000000	0.000000	0.000000	77.701651	-0.000000	-0.000000	1.000000	
[RHand]
#Fr	Tx	Ty	Tz	Rx	Ry	Rz	SF
463	0.000000	0.000000	0.000000	82.679171	-73.889995	-99.554697	1.000000	
464	0.000000	0.000000	0.000000	84.767379	-74.622168	-102.040367	1.000000	
465	0.000000	0.000000	0.000000	86.881261	-75.360160	-104.425345	1.000000	
466	0.000000	0.000000	0.000000	88.627746	-75.941611	-106.276443	1.000000	
[RUpperLeg]
#Fr	Tx	Ty	Tz	Rx	Ry	Rz	SF
463	0.000000	0.000000	0.000000	39.897499	-26.226997	8.948269	1.000000	
464	0.000000	0.000000	0.000000	40.630314	-27.796085	9.451331	1.000000	
465	0.000000	0.000000	0.000000	41.199765	-29.094342	9.448049	1.000000	
466	0.000000	0.000000	0.000000	41.550300	-29.927783	9.214749	1.000000	
[RLowerLeg]
#Fr	Tx	Ty	Tz	Rx	Ry	Rz	SF
463	0.000000	0.000000	0.000000	-24.972926	0.000000	0.000000	1.000000	
464	0.000000	0.000000	0.000000	-23.451947	0.000000	0.000000	1.000000	
465	0.000000	0.000000	0.000000	-21.588651	0.000000	0.000000	1.000000	
466	0.000000	0.000000	0.000000	-19.350303	0.000000	0.000000	1.000000	
[RFoot]
#Fr	Tx	Ty	Tz	Rx	Ry	Rz	SF
463	0.000000	0.000000	0.000000	-22.013397	-27.575357	15.077594	1.000000	
464	0.000000	0.000000	0.000000	-22.649191	-23.940123	17.047139	1.000000	
465	0.000000	0.000000	0.000000	-23.254747	-17.638327	17.471580	1.000000	
466	0.000000	0.000000	0.000000	-24.004591	-9.783166	16.588859	1.000000	
[RToes]
#Fr	Tx	Ty	Tz	Rx	Ry	Rz	SF
463	0.000000	0.000000	0.000000	8.614851	0.000000	0.000000	1.000000	
464	0.000000	0.000000	0.000000	8.648767	0.000000	0.000000	1.000000	
465	0.000000	0.000000	0.000000	7.582332	0.000000	0.000000	1.000000	
466	0.000000	0.000000	0.000000	5.989895	0.000000	0.000000	1.000000	
[LUpperLeg]
#Fr	Tx	Ty	Tz	Rx	Ry	Rz	SF
463	0.000000	0.000000	0.000000	21.848624	-9.566143	1.627506	1.000000	
464	0.000000	0.000000	0.000000	22.326640	-9.752329	2.202321	1.000000	
465	0.000000	0.000000	0.000000	22.821365	-9.911134	2.381645	1.000000	
466	0.000000	0.000000	0.000000	23.382761	-10.194947	2.225204	1.000000	
[LLowerLeg]
#Fr	Tx	Ty	Tz	Rx	Ry	Rz	SF
463	0.000000	0.000000	0.000000	2.485074	0.000000	-0.000000	1.000000	
464	0.000000	0.000000	0.000000	2.601824	0.000000	-0.000000	1.000000	
465	0.000000	0.000000	0.000000	2.499418	0.000000	-0.000000	1.000000	
466	0.000000	0.000000	0.000000	2.215452	0.000000	-0.000000	1.000000	
[LFoot]
#Fr	Tx	Ty	Tz	Rx	Ry	Rz	SF
463	0.000000	0.000000	0.000000	-77.175356	-76.962335	40.215545	1.000000	
464	0.000000	0.000000	0.000000	-74.477185	-76.687967	37.098338	1.000000	
465	0.000000	0.000000	0.000000	-63.631106	-76.041068	25.885500	1.000000	
466	0.000000	0.000000	0.000000	-50.183197	-74.689295	12.433374	1.000000	
[LToes]
#Fr	Tx	Ty	Tz	Rx	Ry	Rz	SF
463	0.000000	0.000000	0.000000	-52.200043	-0.000000	0.000000	1.000000	
464	0.000000	0.000000	0.000000	-52.360631	-0.000000	0.000000	1.000000	
465	0.000000	0.000000	0.000000	-51.923701	-0.000000	0.000000	1.000000	
466	0.000000	0.000000	0.000000	-51.454137	-0.000000	0.000000	1.000000	
